<?xml version="1.0" encoding="UTF-8"?>
<svg version="1.1" xmlns="http://www.w3.org/2000/svg" width="1024" height="1024">
<path d="M0 0 C337.92 0 675.84 0 1024 0 C1024 337.92 1024 675.84 1024 1024 C686.08 1024 348.16 1024 0 1024 C0 686.08 0 348.16 0 0 Z " fill="#EEF4F6" transform="translate(0,0)"/>
<path d="M0 0 C1.54173656 -0.00407131 3.08347019 -0.00941631 4.62519836 -0.01593018 C8.79056679 -0.02954432 12.95571095 -0.02432937 17.12108302 -0.01479292 C21.49394097 -0.00716423 25.86678053 -0.01425094 30.23963928 -0.01895142 C37.58232039 -0.02440023 44.9249108 -0.01724095 52.26757812 -0.00292969 C60.73764412 0.01338907 69.20749335 0.00811045 77.67755407 -0.0084089 C84.96872075 -0.02205601 92.25982246 -0.02392753 99.55099779 -0.0160929 C103.8973305 -0.01143328 108.24356158 -0.01074403 112.58988762 -0.02070236 C116.67842482 -0.02941662 120.7666847 -0.0232694 124.85519218 -0.00601959 C126.34906048 -0.00207816 127.84295241 -0.00314825 129.33681107 -0.00980759 C142.83582416 -0.0644006 152.25978709 1.6545388 162.32055664 10.94677734 C170.34111973 19.30821437 171.22457693 29.84937334 171.15063477 40.91503906 C171.15764404 42.22224915 171.16465332 43.52945923 171.171875 44.87628174 C171.18995774 48.43026301 171.18310312 51.98377468 171.17035866 55.53776312 C171.16014782 59.27926636 171.16964695 63.02073253 171.17590332 66.76223755 C171.18315822 73.04468919 171.17365094 79.32695209 171.15454102 85.609375 C171.13279528 92.84118206 171.13981539 100.07253751 171.16184664 107.30433357 C171.1800853 113.54423627 171.18251735 119.78400416 171.17209196 126.02392495 C171.16590077 129.73711347 171.1648987 133.45009083 171.17823792 137.16326523 C171.19209659 141.30995511 171.17280973 145.4558852 171.15063477 149.60253906 C171.15873169 150.81021942 171.16682861 152.01789978 171.1751709 153.26217651 C171.0562231 165.35067181 168.62348278 175.62828142 160.00415039 184.36083984 C156.77475067 187.12205641 153.62288518 188.96820593 149.63305664 190.38818359 C148.34352333 190.90291985 148.34352333 190.90291985 147.02793884 191.42805481 C143.03887735 192.55622731 139.3944571 192.58459239 135.29541016 192.46899414 C133.60560059 192.43988665 131.91578608 192.41106594 130.22596741 192.38249207 C129.3363991 192.36396872 128.44683079 192.34544537 127.53030586 192.3263607 C122.77653072 192.23799684 118.02225704 192.2178731 113.26782227 192.18701172 C107.23655614 192.14545715 101.2079904 192.08389889 95.17822266 191.93920898 C90.28793317 191.82367333 85.40182368 191.78322988 80.51023674 191.79071999 C78.66062834 191.78031131 76.81094881 191.74349917 74.96246529 191.67816734 C66.78130043 191.40075508 59.72911038 191.23667187 53.19967651 196.70449829 C49.90110116 199.83427493 46.9352959 203.19025733 44.054533 206.70438576 C42.34758022 208.72634228 40.48026331 210.45011697 38.44555664 212.13818359 C35.62437101 214.52202385 32.88128896 216.97493693 30.16625977 219.47949219 C28.60087686 220.92272925 27.02753138 222.35687958 25.45336914 223.79052734 C23.81807578 225.2967186 22.19884228 226.82155318 20.62524414 228.39208984 C16.91459463 231.9732981 13.85746879 233.35940288 8.65258789 233.63427734 C6.63305664 233.38818359 6.63305664 233.38818359 4.13305664 231.57568359 C1.42700047 227.62935169 1.42298014 224.42138584 1.31665039 219.75537109 C1.29586929 219.00353546 1.2750882 218.25169983 1.25367737 217.4770813 C1.18822959 215.07254274 1.12931926 212.66789392 1.07055664 210.26318359 C1.02736687 208.63426589 0.98375243 207.00535938 0.93969727 205.37646484 C0.83255313 201.38048445 0.73127231 197.38439301 0.63305664 193.38818359 C-0.36854492 193.34137451 -1.37014648 193.29456543 -2.40209961 193.24633789 C-3.74457321 193.17299471 -5.08701983 193.09915633 -6.42944336 193.02490234 C-7.74041992 192.95746826 -9.05139648 192.89003418 -10.40209961 192.82055664 C-19.32548781 191.84744577 -28.50868167 188.44263484 -34.36694336 181.38818359 C-41.46874811 171.41262529 -42.66633443 163.30496777 -42.6574707 151.28369141 C-42.66418793 149.97385284 -42.67090515 148.66401428 -42.67782593 147.31448364 C-42.69542511 143.73574243 -42.70017878 140.157097 -42.7014575 136.57831669 C-42.70288334 134.33740569 -42.70716116 132.09651871 -42.71245193 129.85561371 C-42.73093352 122.02335578 -42.73912508 114.19116573 -42.73754883 106.35888672 C-42.73634858 99.08171047 -42.75743258 91.80483135 -42.78903615 84.52773023 C-42.81527352 78.2607883 -42.82591298 71.99394296 -42.82463801 65.72694659 C-42.82413047 61.99249224 -42.82969688 58.25830207 -42.85099411 54.52390289 C-42.87413585 50.35248336 -42.86481024 46.18172041 -42.8527832 42.01025391 C-42.86402222 40.78909882 -42.87526123 39.56794373 -42.88684082 38.30978394 C-42.8059306 27.22469534 -40.13207206 17.56577872 -32.36694336 9.38818359 C-22.79216816 0.48141597 -12.55792973 -0.05589777 0 0 Z " fill="#00AEA0" transform="translate(128.366943359375,396.61181640625)"/>
<path d="M0 0 C6.64142135 4.77059844 13.68331772 11.65888206 15.69140625 19.8046875 C15.84416016 20.89136719 15.84416016 20.89136719 16 22 C10.05333969 26.17989891 3.87414004 30.5059528 -3 33 C-6.43196768 31.85601077 -6.84194251 31.13797957 -8.8125 28.25 C-13.51429663 21.79655364 -19.17282317 16.98330903 -27 15 C-37.7106365 13.69750324 -47.31861932 14.4584079 -56.390625 20.625 C-63.87276951 26.57107511 -68.86665306 35.36436524 -70.75390625 44.76171875 C-72.33743613 59.16430001 -70.52643401 73.26686283 -61.5078125 84.9296875 C-55.39944995 91.73948882 -46.71607685 95.41304875 -37.67578125 96.203125 C-28.13979956 96.39226844 -19.51702661 94.03615627 -12 88 C-9.27325754 85.24949508 -6.73912723 82.47825445 -5 79 C0.00113594 80.48008696 4.32915597 82.6318336 8.875 85.125 C9.56335938 85.49753906 10.25171875 85.87007812 10.9609375 86.25390625 C12.64294798 87.16499526 14.32180436 88.08190315 16 89 C14.81020749 97.49214402 7.80443406 103.79097306 1.5078125 109.1484375 C-13.43578176 120.1815585 -32.09463448 122.30233167 -50.13525391 119.69091797 C-53.95958264 118.90186674 -57.44991417 117.60278137 -61 116 C-62.42119141 115.36384766 -62.42119141 115.36384766 -63.87109375 114.71484375 C-78.08947564 107.63523335 -88.45546262 95.77863824 -94 81 C-96.03217921 74.793386 -97.63730397 68.53919605 -98 62 C-98.06445312 60.84886719 -98.12890625 59.69773437 -98.1953125 58.51171875 C-98.8650677 40.58237201 -93.93709604 23.13959647 -81.75 9.5625 C-61.27807843 -12.0110811 -24.88626392 -16.28360479 0 0 Z " fill="#11272D" transform="translate(444,445)"/>
<path d="M0 0 C6.89580352 5.45764129 10.74202796 13.15804684 12.19140625 21.734375 C12.28930242 23.28265552 12.34605535 24.8339971 12.36499023 26.38525391 C12.37848007 27.27612701 12.39196991 28.16700012 12.40586853 29.08486938 C12.42152611 30.5085231 12.42152611 30.5085231 12.4375 31.9609375 C12.47041553 33.98177554 12.50362754 36.00260877 12.53710938 38.0234375 C12.58465176 41.20114075 12.62914532 44.37882139 12.66821289 47.55664062 C12.70782848 50.62910236 12.75937052 53.70118396 12.8125 56.7734375 C12.82091415 57.72658844 12.82932831 58.67973938 12.83799744 59.66177368 C12.85463943 60.54634247 12.87128143 61.43091125 12.88842773 62.34228516 C12.90388893 63.50880112 12.90388893 63.50880112 12.91966248 64.69888306 C13.08107504 67.04523931 13.08107504 67.04523931 15.19140625 69.734375 C17.25065764 70.45819967 17.25065764 70.45819967 19.19140625 70.734375 C19.21825304 73.38027514 19.23816982 76.02590596 19.25390625 78.671875 C19.26228516 79.42662109 19.27066406 80.18136719 19.27929688 80.95898438 C19.28793066 82.88431813 19.24364958 84.80973081 19.19140625 86.734375 C16.90179637 89.02398488 11.57467531 88.01455112 8.50390625 88.046875 C7.15522461 88.09038086 7.15522461 88.09038086 5.77929688 88.13476562 C0.09022038 88.18902681 -3.39572601 87.70248127 -7.80859375 83.734375 C-9.18359375 81.484375 -9.18359375 81.484375 -9.80859375 79.734375 C-10.35386719 80.13269531 -10.89914062 80.53101563 -11.4609375 80.94140625 C-12.21503906 81.47121094 -12.96914063 82.00101563 -13.74609375 82.546875 C-14.47699219 83.06894531 -15.20789063 83.59101562 -15.9609375 84.12890625 C-23.17639404 88.19687969 -30.04044995 89.265104 -38.24609375 89.171875 C-39.17115723 89.16502686 -40.0962207 89.15817871 -41.04931641 89.15112305 C-47.6624746 88.99511375 -53.0751249 88.22784488 -58.80859375 84.734375 C-59.44539062 84.41855469 -60.0821875 84.10273437 -60.73828125 83.77734375 C-66.80905749 80.29902346 -69.62727716 74.16270729 -71.80859375 67.734375 C-73.36288039 58.21881863 -70.78148034 51.472413 -65.80859375 43.546875 C-59.83091857 36.8823241 -48.77061713 33.03624468 -40.07641602 32.50732422 C-38.77244873 32.51779785 -37.46848145 32.52827148 -36.125 32.5390625 C-35.07444679 32.54330734 -35.07444679 32.54330734 -34.00267029 32.54763794 C-31.79196205 32.55872615 -29.58167704 32.58380797 -27.37109375 32.609375 C-25.86133403 32.61941954 -24.35156787 32.6285428 -22.84179688 32.63671875 C-19.16392778 32.65862786 -15.48630215 32.69307742 -11.80859375 32.734375 C-12.06584266 30.63354022 -12.3415021 28.53495386 -12.625 26.4375 C-12.77654541 25.26864258 -12.92809082 24.09978516 -13.08422852 22.89550781 C-13.81453026 19.70846806 -14.27990971 18.52959581 -16.74609375 16.484375 C-22.36888019 13.27135418 -27.45867469 13.19840186 -33.80859375 13.734375 C-37.22834294 15.02432293 -37.22834294 15.02432293 -39.80859375 16.734375 C-40.79859375 17.064375 -41.78859375 17.394375 -42.80859375 17.734375 C-43.97812791 20.15820577 -43.97812791 20.15820577 -44.80859375 22.734375 C-45.13859375 23.394375 -45.46859375 24.054375 -45.80859375 24.734375 C-53.28694342 24.24609787 -60.49784693 23.40031952 -67.80859375 21.734375 C-67.45298288 13.37751951 -62.98661091 7.51701803 -56.99609375 1.921875 C-41.39577742 -10.8905521 -16.59063768 -10.75861577 0 0 Z " fill="#12272D" transform="translate(645.80859375,476.265625)"/>
<path d="M0 0 C0.33 15.51 0.66 31.02 1 47 C3.64 44.69 6.28 42.38 9 40 C20.55650622 34.74704263 32.07086578 34.80094476 44 39 C52.33475717 42.97621443 57.22679665 49.19606008 60.56225586 57.69384766 C62.7779175 64.4801511 62.37147185 71.48436127 62.29296875 78.53515625 C62.28736306 80.02444529 62.28309757 81.51373992 62.28010559 83.0030365 C62.26873325 86.89439573 62.23933328 90.78541101 62.20599365 94.67663574 C62.17512711 98.65872548 62.16156507 102.6408716 62.14648438 106.62304688 C62.11445481 114.41553842 62.06175084 122.20767691 62 130 C54.08 130 46.16 130 38 130 C37.9906543 128.22431641 37.98130859 126.44863281 37.97167969 124.61914062 C37.93604313 118.72770103 37.88217598 112.83657669 37.81609726 106.94541168 C37.77672284 103.37635052 37.74448584 99.80753236 37.72900391 96.23828125 C37.7137702 92.78851111 37.67920863 89.33940947 37.63169098 85.88993835 C37.60980909 83.94483638 37.60753204 81.99954543 37.60565186 80.05432129 C37.48845283 72.91822952 36.88757205 68.05058207 33 62 C29.64784587 59.01404758 25.44417231 57.77994786 21 57.5 C14.93572915 57.85742264 10.5002096 60.56646639 6.1875 64.6875 C1.01798078 72.5156291 0.54108288 80.27680869 0.48828125 89.47265625 C0.46135445 91.21814003 0.46135445 91.21814003 0.43388367 92.99888611 C0.38004383 96.68672142 0.34596881 100.37442924 0.3125 104.0625 C0.27930378 106.57488743 0.24481201 109.08725809 0.20898438 111.59960938 C0.12191286 117.73308862 0.06161619 123.86600183 0 130 C-7.92 130 -15.84 130 -24 130 C-24 87.43 -24 44.86 -24 1 C-11 0 -11 0 0 0 Z " fill="#11272C" transform="translate(496,434)"/>
<path d="M0 0 C8.25 0 16.5 0 25 0 C27.18954057 6.25730042 29.37740169 12.51514137 31.5612793 18.77441406 C32.3022055 20.89648581 33.04404232 23.01823988 33.78686523 25.13964844 C38.06720115 37.36588103 42.25753311 49.59730741 46 62 C48.21516962 58.67724558 49.34424218 55.36127083 50.57421875 51.60546875 C50.81910034 50.86922272 51.06398193 50.13297668 51.31628418 49.37442017 C52.11115347 46.98023291 52.89940663 44.58392529 53.6875 42.1875 C54.22993975 40.54962894 54.77266508 38.91185243 55.31567383 37.27416992 C58.6370255 27.23720855 61.90529919 17.18429234 65.03198242 7.0847168 C66.89760491 1.10239509 66.89760491 1.10239509 68 0 C69.85369611 -0.08737645 71.71067541 -0.10698153 73.56640625 -0.09765625 C74.69111328 -0.09443359 75.81582031 -0.09121094 76.97460938 -0.08789062 C78.15861328 -0.07951172 79.34261719 -0.07113281 80.5625 -0.0625 C81.75037109 -0.05798828 82.93824219 -0.05347656 84.16210938 -0.04882812 C87.10812226 -0.03699675 90.05403681 -0.02051287 93 0 C92.24185014 4.85484065 90.54735166 9.29216113 88.859375 13.8828125 C88.54092621 14.75748169 88.22247742 15.63215088 87.89437866 16.5333252 C86.84996342 19.39858704 85.80016704 22.26184177 84.75 25.125 C84.02179049 27.11760922 83.29376491 29.11028566 82.56591797 31.10302734 C80.38399878 37.07115956 78.19371128 43.03619325 76 49 C75.52548401 50.29019043 75.52548401 50.29019043 75.04138184 51.60644531 C71.5440803 61.11031881 68.0212224 70.60431746 64.46533203 80.08642578 C63.49517832 82.67411791 62.53012391 85.26361566 61.56982422 87.85498047 C60.24371547 91.42786028 58.90498173 94.99574558 57.5625 98.5625 C57.18561035 99.5848877 56.8087207 100.60727539 56.42041016 101.66064453 C52.40708536 112.22380061 48.04888122 120.77067127 38.1875 126.6875 C29.18641486 130.39382918 20.61797954 130.17329693 11 130 C11 122.74 11 115.48 11 108 C14.3 108 17.6 108 21 108 C24.81154174 107.0778528 27.03395197 106.34855838 29.3515625 103.11328125 C32.6036678 96.7749944 32.23404314 91.32318066 30.29907227 84.54446411 C29.38934922 81.88639537 28.41954529 79.25913447 27.421875 76.6328125 C27.0584903 75.65155396 26.69510559 74.67029541 26.32070923 73.65930176 C25.13991685 70.47759449 23.94497885 67.30140289 22.75 64.125 C21.93340571 61.93054833 21.11782041 59.73572093 20.30322266 57.54052734 C17.88131832 51.02231346 15.44236244 44.51057077 13 38 C12.29187775 36.11071997 11.58386439 34.22139912 10.87597656 32.33203125 C10.5461377 31.4516922 10.21629883 30.57135315 9.87646484 29.66433716 C8.6560739 26.40465964 7.43841622 23.14396397 6.2208252 19.88323975 C5.38862776 17.66138429 4.54975582 15.44213764 3.70996094 13.22314453 C3.21010718 11.89101778 2.71042168 10.55882787 2.2109375 9.2265625 C1.78087402 8.08783691 1.35081055 6.94911133 0.90771484 5.77587891 C0 3 0 3 0 0 Z " fill="#12282D" transform="translate(848,471)"/>
<path d="M0 0 C0.9796875 0.00322266 1.959375 0.00644531 2.96875 0.00976562 C3.98453125 0.01814453 5.0003125 0.02652344 6.046875 0.03515625 C7.59375 0.04192383 7.59375 0.04192383 9.171875 0.04882812 C11.71356654 0.06059522 14.25522818 0.07853015 16.796875 0.09765625 C16.796875 6.69765625 16.796875 13.29765625 16.796875 20.09765625 C9.546875 20.34765625 9.546875 20.34765625 7.28417969 20.39550781 C4.10039835 20.55820777 2.04425366 20.93059534 -0.609375 22.72265625 C-2.65391556 25.76942257 -3.01753507 28.2177402 -3.453125 31.84765625 C-3.700625 33.91015625 -3.948125 35.97265625 -4.203125 38.09765625 C2.726875 38.09765625 9.656875 38.09765625 16.796875 38.09765625 C16.796875 45.35765625 16.796875 52.61765625 16.796875 60.09765625 C9.866875 60.09765625 2.936875 60.09765625 -4.203125 60.09765625 C-4.203125 83.52765625 -4.203125 106.95765625 -4.203125 131.09765625 C-12.123125 131.09765625 -20.043125 131.09765625 -28.203125 131.09765625 C-28.203125 107.66765625 -28.203125 84.23765625 -28.203125 60.09765625 C-32.823125 60.09765625 -37.443125 60.09765625 -42.203125 60.09765625 C-42.203125 52.83765625 -42.203125 45.57765625 -42.203125 38.09765625 C-37.583125 38.09765625 -32.963125 38.09765625 -28.203125 38.09765625 C-28.24953125 36.97488281 -28.2959375 35.85210937 -28.34375 34.6953125 C-28.80028814 19.03133135 -28.80028814 19.03133135 -24.203125 12.09765625 C-23.501875 11.02515625 -22.800625 9.95265625 -22.078125 8.84765625 C-15.94900509 2.98501982 -8.43282245 -0.04902804 0 0 Z " fill="#11272D" transform="translate(827.203125,432.90234375)"/>
<path d="M0 0 C7.92 0 15.84 0 24 0 C24 8.58 24 17.16 24 26 C31.26 26 38.52 26 46 26 C46 33.26 46 40.52 46 48 C38.74 48 31.48 48 24 48 C24.09693137 54.19340413 24.19966055 60.38613844 24.31738281 66.57910156 C24.35566306 68.68581254 24.3905176 70.79258867 24.421875 72.89941406 C24.46754598 75.92797121 24.52553745 78.95608022 24.5859375 81.984375 C24.59748871 82.92617615 24.60903992 83.86797729 24.62094116 84.83831787 C24.64081085 85.71892883 24.66068054 86.59953979 24.68115234 87.50683594 C24.69447601 88.27960876 24.70779968 89.05238159 24.7215271 89.84857178 C25.03662 92.28291913 25.737514 93.90464692 27 96 C30.52190199 98.66658293 34.53368645 98.22781472 38.75 98.125 C42.33875 98.063125 42.33875 98.063125 46 98 C46 104.93 46 111.86 46 119 C18.04572946 119.84638666 18.04572946 119.84638666 8.0625 112.25 C3.20658089 107.66191335 0.22300556 101.34171819 -0.12025452 94.65875244 C-0.1169236 93.36635651 -0.1169236 93.36635651 -0.11352539 92.04785156 C-0.11344986 91.06713684 -0.11337433 90.08642212 -0.11329651 89.07598877 C-0.10813522 88.02481873 -0.10297394 86.97364868 -0.09765625 85.890625 C-0.0962413 84.80867859 -0.09482635 83.72673218 -0.09336853 82.61199951 C-0.08777318 79.1579715 -0.0752215 75.70400841 -0.0625 72.25 C-0.0574844 69.90755302 -0.0529216 67.56510502 -0.04882812 65.22265625 C-0.03780527 59.48174583 -0.02054379 53.74088392 0 48 C-4.95 48 -9.9 48 -15 48 C-15 40.74 -15 33.48 -15 26 C-10.05 26 -5.1 26 0 26 C0 17.42 0 8.84 0 0 Z " fill="#11292E" transform="translate(686,445)"/>
<path d="M0 0 C7.92 0 15.84 0 24 0 C24 30.69 24 61.38 24 93 C16.08 93 8.16 93 0 93 C0 62.31 0 31.62 0 0 Z " fill="#10252B" transform="translate(749,471)"/>
<path d="M0 0 C3.54212798 2.02407313 5.30236019 4.37322425 7.3125 7.8125 C12.22191445 15.99993962 19.0374678 20.16491328 28 23 C28.59039062 23.19335938 29.18078125 23.38671875 29.7890625 23.5859375 C42.38751604 25.94536519 54.97023932 23.92185197 65.96484375 17.4453125 C70.52326225 14.20804792 73.50794507 10.03286061 76.1875 5.1875 C78 2 78 2 81 0 C85.02035732 -0.44670637 87.29621811 -0.38249016 90.875 1.5625 C92.954214 3.94748077 94.08310262 5.61598898 94.32421875 8.8125 C93.08345559 17.18391409 87.55924166 24.8983676 81 30 C64.84722816 41.67969656 48.59061164 44.48217224 29 43 C14.96657967 40.54728701 1.76950385 32.83337698 -6.921875 21.4921875 C-10.6067009 16.03513581 -13.13496872 11.82285796 -12 5 C-8.62505893 0.09099481 -5.84787119 -0.93983644 0 0 Z " fill="#EDF4F6" transform="translate(152,503)"/>
<path d="M0 0 C4.85901474 2.29698879 7.66907123 5.15884024 10 10 C10.64980519 14.54863634 10.58927283 18.52681792 8.875 22.8125 C5.14720374 27.16159564 2.35105183 30.08512219 -3.375 31.0625 C-8.36625338 31.34867642 -12.01909905 29.97216587 -16 27 C-19.52567085 23.11272188 -20.80453004 19.45216314 -21.16015625 14.30859375 C-20.78338689 8.87760129 -18.24809443 5.2176531 -14.4375 1.5 C-9.55375675 -0.63108796 -5.24808614 -0.7664865 0 0 Z " fill="#ECF4F5" transform="translate(165,451)"/>
<path d="M0 0 C4.00878994 3.46213677 6.43090528 6.49845494 7.015625 11.76953125 C6.82494008 17.97632542 4.75030174 21.42574475 0.5390625 25.87890625 C-3.11683862 28.93613361 -7.19907815 28.70651451 -11.7421875 28.66015625 C-16.36758873 28.13421499 -19.08494048 25.70075738 -22.0625 22.3125 C-24.75596651 17.91789675 -24.86642905 13.37492452 -24.25 8.375 C-21.78025062 3.52697344 -18.47004153 -0.18153311 -13.4375 -2.4375 C-8.38003257 -2.87099721 -4.48457733 -2.24228866 0 0 Z " fill="#ECF4F6" transform="translate(235.25,452.625)"/>
<path d="M0 0 C3.62011046 2.33296007 5.89022378 4.96794755 7.8125 8.8125 C8.37600726 13.43141196 8.2547879 16.91091312 6.1875 21.125 C2.39425766 25.41735318 -0.35358641 27.57962208 -6.125 28.3125 C-10.51979463 28.05200548 -13.85058458 26.68478163 -17.1875 23.8125 C-19.97122077 20.49502746 -21.0756214 17.59565023 -21.6875 13.3125 C-20.98175962 8.37231733 -19.48565093 4.74658742 -15.609375 1.484375 C-10.41780627 -1.83635815 -5.83367407 -2.17332956 0 0 Z " fill="#12272C" transform="translate(767.1875,431.1875)"/>
<path d="M0 0 C1.11310547 0.01353516 2.22621094 0.02707031 3.37304688 0.04101562 C6.10337212 0.07617003 8.83267744 0.12537894 11.5625 0.1875 C11.60832274 1.61818775 11.6409116 3.04930312 11.66796875 4.48046875 C11.68754639 5.27735107 11.70712402 6.0742334 11.72729492 6.89526367 C11.39068341 11.57740511 8.46382773 14.31053247 5.25 17.4375 C-1.01068325 21.51422398 -8.14767185 22.0853674 -15.4375 21.1875 C-18.81729606 19.93045305 -21.76444805 18.5336039 -23.4375 15.1875 C-23.80922047 11.24726306 -23.85041829 8.91423619 -21.875 5.4375 C-15.32708672 -0.60672764 -8.47129718 -0.19607157 0 0 Z " fill="#EDF1F4" transform="translate(622.4375,524.8125)"/>
<path d="M0 0 C7.92 0 15.84 0 24 0 C24 8.58 24 17.16 24 26 C31.26 26 38.52 26 46 26 C46 33.26 46 40.52 46 48 C38.74 48 31.48 48 24 48 C24 62.85 24 77.7 24 93 C23.67 93 23.34 93 23 93 C23 77.82 23 62.64 23 47 C30.26 47 37.52 47 45 47 C45 40.73 45 34.46 45 28 C43.50726562 28.02320313 42.01453125 28.04640625 40.4765625 28.0703125 C38.52604665 28.08906746 36.57552542 28.10726795 34.625 28.125 C33.64015625 28.14175781 32.6553125 28.15851563 31.640625 28.17578125 C30.69960938 28.18222656 29.75859375 28.18867188 28.7890625 28.1953125 C27.91975098 28.20578613 27.05043945 28.21625977 26.15478516 28.22705078 C24 28 24 28 22 26 C21.77294922 23.56982422 21.77294922 23.56982422 21.8046875 20.5546875 C21.81113281 19.47832031 21.81757812 18.40195312 21.82421875 17.29296875 C21.84097656 16.16503906 21.85773437 15.03710938 21.875 13.875 C21.88402344 12.73933594 21.89304687 11.60367187 21.90234375 10.43359375 C21.92596801 7.62230663 21.9618399 4.81112738 22 2 C15.4 2 8.8 2 2 2 C2 10.25 2 18.5 2 27 C-2.26159382 29.13079691 -8.40763702 28.04502317 -13 28 C-13 34.27 -13 40.54 -13 47 C-9.5659375 46.9690625 -9.5659375 46.9690625 -6.0625 46.9375 C-3.70833668 46.91629132 -1.35313555 46.92728259 1 47 C2 48 2 48 2.11352539 51.96899414 C2.1133662 53.74105607 2.10766785 55.5131226 2.09765625 57.28515625 C2.0962413 58.21597519 2.09482635 59.14679413 2.09336853 60.1058197 C2.08775172 63.09141191 2.0751964 66.07693029 2.0625 69.0625 C2.05748716 71.08137913 2.05292388 73.10025943 2.04882812 75.11914062 C2.03777683 80.07945572 2.02050095 85.03971532 2 90 C1.34 90 0.68 90 0 90 C0 76.14 0 62.28 0 48 C-4.95 48 -9.9 48 -15 48 C-15 40.74 -15 33.48 -15 26 C-10.05 26 -5.1 26 0 26 C0 17.42 0 8.84 0 0 Z " fill="#0A1418" transform="translate(686,445)"/>
<path d="M0 0 C15.84 0 31.68 0 48 0 C48 0.33 48 0.66 48 1 C39.75 1 31.5 1 23 1 C22.23085666 4.07657338 21.83034891 6.44405157 21.68359375 9.546875 C21.62075195 10.81337891 21.62075195 10.81337891 21.55664062 12.10546875 C21.51732422 12.97816406 21.47800781 13.85085938 21.4375 14.75 C21.37272461 16.08224609 21.37272461 16.08224609 21.30664062 17.44140625 C21.20086385 19.62745963 21.09877454 21.81362089 21 24 C14.73191505 27.13404247 7.00793201 25 0 25 C0 48.1 0 71.2 0 95 C-2.59553834 96.29776917 -4.50705527 96.12950035 -7.41015625 96.1328125 C-9.01793945 96.13474609 -9.01793945 96.13474609 -10.65820312 96.13671875 C-11.78162109 96.13285156 -12.90503906 96.12898437 -14.0625 96.125 C-15.75342773 96.13080078 -15.75342773 96.13080078 -17.47851562 96.13671875 C-18.54908203 96.13542969 -19.61964844 96.13414062 -20.72265625 96.1328125 C-21.71015869 96.13168457 -22.69766113 96.13055664 -23.71508789 96.12939453 C-26 96 -26 96 -27 95 C-27.09429342 92.82194281 -27.11742538 90.6407872 -27.11352539 88.46069336 C-27.11367142 87.77779739 -27.11381744 87.09490143 -27.1139679 86.39131165 C-27.11326876 84.12412386 -27.1054764 81.85701726 -27.09765625 79.58984375 C-27.09579207 78.02185613 -27.09436817 76.45386793 -27.09336853 74.88587952 C-27.08954334 70.75123497 -27.07971306 66.61662534 -27.06866455 62.48199463 C-27.05845044 58.26599602 -27.05387091 54.04999178 -27.04882812 49.83398438 C-27.03809079 41.55597353 -27.02101436 33.2779911 -27 25 C-29.97 25 -32.94 25 -36 25 C-36 24.67 -36 24.34 -36 24 C-32.7 24 -29.4 24 -26 24 C-26 47.1 -26 70.2 -26 94 C-18.08 94 -10.16 94 -2 94 C-2 70.57 -2 47.14 -2 23 C4.93 23 11.86 23 19 23 C19 15.74 19 8.48 19 1 C12.73 1 6.46 1 0 1 C0 0.67 0 0.34 0 0 Z " fill="#F7F9FA" transform="translate(825,470)"/>
<path d="M0 0 C3.81281945 0.13815529 7.62515717 0.28680562 11.4375 0.4375 C12.52611328 0.47681641 13.61472656 0.51613281 14.73632812 0.55664062 C16.28803711 0.61948242 16.28803711 0.61948242 17.87109375 0.68359375 C18.82943115 0.72025146 19.78776855 0.75690918 20.77514648 0.79467773 C23 1 23 1 24 2 C24.09932153 3.69558726 24.13080007 5.39525747 24.1328125 7.09375 C24.13474609 8.63869141 24.13474609 8.63869141 24.13671875 10.21484375 C24.13285156 11.29894531 24.12898437 12.38304687 24.125 13.5 C24.13080078 15.12615234 24.13080078 15.12615234 24.13671875 16.78515625 C24.13542969 17.81511719 24.13414062 18.84507812 24.1328125 19.90625 C24.13168457 20.85822266 24.13055664 21.81019531 24.12939453 22.79101562 C24 25 24 25 23 26 C16.07 26 9.14 26 2 26 C2 40.52 2 55.04 2 70 C0 68 0 68 -0.24050903 66.08908081 C-0.23606781 65.31186676 -0.23162659 64.53465271 -0.22705078 63.73388672 C-0.22689972 62.85312469 -0.22674866 61.97236267 -0.22659302 61.06491089 C-0.21627045 60.11278717 -0.20594788 59.16066345 -0.1953125 58.1796875 C-0.1924826 57.20589142 -0.18965271 56.23209534 -0.18673706 55.22879028 C-0.17551913 52.11073651 -0.1504117 48.99296732 -0.125 45.875 C-0.11497228 43.76432706 -0.10584607 41.65364962 -0.09765625 39.54296875 C-0.07727392 34.36178064 -0.03812828 29.18120982 0 24 C7.26 24 14.52 24 22 24 C22 16.74 22 9.48 22 2 C14.74 2 7.48 2 0 2 C0 1.34 0 0.68 0 0 Z " fill="#FAFCFC" transform="translate(710,469)"/>
<path d="M0 0 C0.33 17.82 0.66 35.64 1 54 C-2.96214378 48.05678433 -2.13953452 40.19174183 -2.09765625 33.25 C-2.0962413 32.35128174 -2.09482635 31.45256348 -2.09336853 30.52661133 C-2.08781583 27.68437225 -2.07527237 24.84221487 -2.0625 22 C-2.05747888 20.06119906 -2.05291705 18.12239688 -2.04882812 16.18359375 C-2.03786194 11.45569817 -2.02063044 6.72786289 -2 2 C-5.96 2 -9.92 2 -14 2 C-14 1.67 -14 1.34 -14 1 C-12.04175306 0.83232136 -10.08339945 0.66588795 -8.125 0.5 C-6.48917969 0.36078125 -6.48917969 0.36078125 -4.8203125 0.21875 C-3.21670436 0.09437042 -1.60842449 0 0 0 Z " fill="#FAFCFD" transform="translate(686,493)"/>
<path d="M0 0 C0.33 0 0.66 0 1 0 C1 2.64 1 5.28 1 8 C-17.81 8.495 -17.81 8.495 -37 9 C-33.66219273 7.33109636 -32.2799771 6.74326252 -28.8125 6.4375 C-25.21809061 6.42538466 -25.21809061 6.42538466 -24 5 C-22.29227642 4.91286169 -20.58101351 4.89299993 -18.87109375 4.90234375 C-17.31938477 4.90717773 -17.31938477 4.90717773 -15.73632812 4.91210938 C-14.64771484 4.92048828 -13.55910156 4.92886719 -12.4375 4.9375 C-10.7987793 4.94426758 -10.7987793 4.94426758 -9.12695312 4.95117188 C-6.41791505 4.96300174 -3.70898401 4.97948457 -1 5 C-0.67 3.35 -0.34 1.7 0 0 Z " fill="#E4E9EB" transform="translate(633,501)"/>
<path d="M0 0 C-1.01653417 2.18945821 -1.94646178 3.94003719 -3.5625 5.75 C-5.66824337 8.69077523 -5.66824337 8.69077523 -6 16 C0.27 16 6.54 16 13 16 C13 16.33 13 16.66 13 17 C2.605 17.495 2.605 17.495 -8 18 C-8 7.44444444 -8 7.44444444 -5 2 C-2 0 -2 0 0 0 Z " fill="#E6EBED" transform="translate(831,453)"/>
<path d="M0 0 C6.50313209 -0.46450943 10.4174808 0.67424388 16 4 C15.67 4.66 15.34 5.32 15 6 C14.21625 5.505 13.4325 5.01 12.625 4.5 C7.95078158 2.56584065 3.98557619 2.73397123 -1 3 C-0.67 2.01 -0.34 1.02 0 0 Z " fill="#E6EBED" transform="translate(513,491)"/>
<path d="M0 0 C0.99 0.495 0.99 0.495 2 1 C2 1.66 2 2.32 2 3 C2.66 3 3.32 3 4 3 C4.66 5.64 5.32 8.28 6 11 C5.01 10.67 4.02 10.34 3 10 C1.25327015 6.5065403 0 3.93154432 0 0 Z " fill="#E8ECEE" transform="translate(553,483)"/>
<path d="M0 0 C1.86323318 0.25288812 3.71708432 0.57690153 5.5625 0.9375 C6.57441406 1.13214844 7.58632813 1.32679688 8.62890625 1.52734375 C9.80259766 1.76130859 9.80259766 1.76130859 11 2 C7.48375245 3.94158017 5.0284349 4.18311068 1 4 C1 3.34 1 2.68 1 2 C0.34 1.67 -0.32 1.34 -1 1 C-0.67 0.67 -0.34 0.34 0 0 Z " fill="#DFE5E7" transform="translate(577,497)"/>
<path d="M0 0 C0 2.97 0 5.94 0 9 C-0.99 8.67 -1.98 8.34 -3 8 C-3 5.69 -3 3.38 -3 1 C-1 0 -1 0 0 0 Z " fill="#192D33" transform="translate(749,440)"/>
</svg>
